<svg viewBox="0 0 800 220" fill="none" xmlns="http://www.w3.org/2000/svg">
  <!-- Stylized leaf/bird graphic (White/Gold variant) -->
  <g id="logo-icon">
    <path d="M 60,110 C 60,70 100,40 140,55 C 120,75 120,105 140,120 C 100,135 60,150 60,110" fill="#f5ebd8" />
    <path d="M 140,55 C 160,35 190,50 180,80 C 160,70 145,85 140,120 C 130,95 125,70 140,55" fill="#c8a86a" />
    <path d="M 140,120 C 150,140 130,170 100,165 C 110,145 125,135 140,120" fill="#f5ebd8" />
  </g>
  
  <!-- Typography (White/Gold variant) -->
  <text x="210" y="115" font-family="'Playfair Display', 'Georgia', serif" font-size="76" font-weight="bold" fill="#f5ebd8" letter-spacing="2">AL-TOOBA</text>
  <text x="590" y="70" font-family="'Inter', sans-serif" font-size="20" font-weight="bold" fill="#c8a86a">TM</text>
  <text x="215" y="160" font-family="'Inter', sans-serif" font-size="19" font-weight="600" fill="#90b09a" letter-spacing="9">PROPHETIC REMEDIES PVT. LTD.</text>
</svg>
